<mxfile host="65bd71144e">
    <diagram id="HvsdEhxOIgLY07Yj3tD1" name="Page-1">
        <mxGraphModel dx="3201" dy="1617" grid="1" gridSize="10" guides="1" tooltips="1" connect="1" arrows="1" fold="1" page="1" pageScale="1" pageWidth="1169" pageHeight="827" background="none" math="0" shadow="0">
            <root>
                <mxCell id="0"/>
                <mxCell id="1" parent="0"/>
                <mxCell id="43" value="" style="endArrow=none;html=1;strokeWidth=8;" parent="1" edge="1">
                    <mxGeometry width="50" height="50" relative="1" as="geometry">
                        <mxPoint x="800" y="800" as="sourcePoint"/>
                        <mxPoint x="800" y="-280" as="targetPoint"/>
                    </mxGeometry>
                </mxCell>
                <mxCell id="48" value="" style="group" parent="1" vertex="1" connectable="0">
                    <mxGeometry x="930" y="-40" width="1000" height="620" as="geometry"/>
                </mxCell>
                <mxCell id="24" value="Financial" style="shape=umlLifeline;perimeter=lifelinePerimeter;whiteSpace=wrap;html=1;container=1;collapsible=0;recursiveResize=0;outlineConnect=0;lifelineDashed=0;fillColor=#42FFAD;rounded=1;glass=0;shadow=1;sketch=0;" parent="48" vertex="1">
                    <mxGeometry x="252" y="100" width="100" height="410" as="geometry"/>
                </mxCell>
                <mxCell id="25" value="" style="endArrow=classic;html=1;fillColor=#a20025;strokeColor=#6F0000;strokeWidth=2;" parent="24" target="32" edge="1">
                    <mxGeometry width="50" height="50" relative="1" as="geometry">
                        <mxPoint x="50" y="120" as="sourcePoint"/>
                        <mxPoint x="168" y="30" as="targetPoint"/>
                    </mxGeometry>
                </mxCell>
                <mxCell id="26" value="Transacao Solicitada" style="edgeLabel;html=1;align=center;verticalAlign=middle;resizable=0;points=[];" parent="25" vertex="1" connectable="0">
                    <mxGeometry x="-0.1297" relative="1" as="geometry">
                        <mxPoint as="offset"/>
                    </mxGeometry>
                </mxCell>
                <mxCell id="27" value="" style="endArrow=classic;html=1;fillColor=#a20025;strokeColor=#6F0000;strokeWidth=2;" parent="24" target="32" edge="1">
                    <mxGeometry width="50" height="50" relative="1" as="geometry">
                        <mxPoint x="50" y="260" as="sourcePoint"/>
                        <mxPoint x="100" y="210" as="targetPoint"/>
                    </mxGeometry>
                </mxCell>
                <mxCell id="28" value="transacao recusada recebida" style="edgeLabel;html=1;align=center;verticalAlign=middle;resizable=0;points=[];" parent="27" vertex="1" connectable="0">
                    <mxGeometry x="-0.1736" relative="1" as="geometry">
                        <mxPoint x="14" y="3" as="offset"/>
                    </mxGeometry>
                </mxCell>
                <mxCell id="29" value="central bank" style="shape=umlLifeline;perimeter=lifelinePerimeter;whiteSpace=wrap;html=1;container=1;collapsible=0;recursiveResize=0;outlineConnect=0;lifelineDashed=0;fillColor=#42FFAD;rounded=1;shadow=1;" parent="48" vertex="1">
                    <mxGeometry x="780" y="100" width="100" height="410" as="geometry"/>
                </mxCell>
                <mxCell id="30" value="" style="endArrow=classic;html=1;fillColor=#a20025;strokeColor=#6F0000;strokeWidth=2;" parent="29" target="32" edge="1">
                    <mxGeometry width="50" height="50" relative="1" as="geometry">
                        <mxPoint x="50" y="220" as="sourcePoint"/>
                        <mxPoint x="-250" y="220" as="targetPoint"/>
                    </mxGeometry>
                </mxCell>
                <mxCell id="31" value="transacao recusada" style="edgeLabel;html=1;align=center;verticalAlign=middle;resizable=0;points=[];" parent="30" vertex="1" connectable="0">
                    <mxGeometry x="-0.2567" y="1" relative="1" as="geometry">
                        <mxPoint x="-29" as="offset"/>
                    </mxGeometry>
                </mxCell>
                <mxCell id="32" value="(Topic)&lt;br&gt;transacoes recusadas" style="shape=umlLifeline;perimeter=lifelinePerimeter;whiteSpace=wrap;html=1;container=1;collapsible=0;recursiveResize=0;outlineConnect=0;lifelineDashed=0;fillColor=#FF3399;rounded=0;shadow=1;gradientColor=none;" parent="48" vertex="1">
                    <mxGeometry x="480" y="100" width="120" height="410" as="geometry"/>
                </mxCell>
                <mxCell id="33" value="Usuario" style="shape=umlLifeline;perimeter=lifelinePerimeter;whiteSpace=wrap;html=1;container=1;collapsible=0;recursiveResize=0;outlineConnect=0;lifelineDashed=0;fillColor=#FFFF85;rounded=1;shadow=1;" parent="48" vertex="1">
                    <mxGeometry y="100" width="100" height="410" as="geometry"/>
                </mxCell>
                <mxCell id="34" value="" style="endArrow=classic;html=1;" parent="48" edge="1">
                    <mxGeometry width="50" height="50" relative="1" as="geometry">
                        <mxPoint x="49.5" y="183" as="sourcePoint"/>
                        <mxPoint x="300" y="183" as="targetPoint"/>
                        <Array as="points">
                            <mxPoint x="240" y="183"/>
                        </Array>
                    </mxGeometry>
                </mxCell>
                <mxCell id="35" value="Solicita uma transação" style="edgeLabel;html=1;align=center;verticalAlign=middle;resizable=0;points=[];" parent="34" vertex="1" connectable="0">
                    <mxGeometry x="-0.1" y="-2" relative="1" as="geometry">
                        <mxPoint x="2" y="-2" as="offset"/>
                    </mxGeometry>
                </mxCell>
                <mxCell id="36" value="" style="endArrow=classic;html=1;fillColor=#a20025;strokeColor=#6F0000;strokeWidth=2;" parent="48" edge="1">
                    <mxGeometry width="50" height="50" relative="1" as="geometry">
                        <mxPoint x="829.5" y="260" as="sourcePoint"/>
                        <mxPoint x="540" y="260" as="targetPoint"/>
                    </mxGeometry>
                </mxCell>
                <mxCell id="37" value="transacao solicitada recebida" style="edgeLabel;html=1;align=center;verticalAlign=middle;resizable=0;points=[];" parent="36" vertex="1" connectable="0">
                    <mxGeometry x="-0.2567" y="1" relative="1" as="geometry">
                        <mxPoint x="-28" as="offset"/>
                    </mxGeometry>
                </mxCell>
                <mxCell id="38" value="" style="endArrow=classic;html=1;fillColor=#a20025;strokeColor=#6F0000;strokeWidth=2;" parent="48" source="24" target="33" edge="1">
                    <mxGeometry width="50" height="50" relative="1" as="geometry">
                        <mxPoint x="170" y="430" as="sourcePoint"/>
                        <mxPoint x="220" y="380" as="targetPoint"/>
                        <Array as="points">
                            <mxPoint x="210" y="410"/>
                        </Array>
                    </mxGeometry>
                </mxCell>
                <mxCell id="39" value="transacao nao realizada" style="edgeLabel;html=1;align=center;verticalAlign=middle;resizable=0;points=[];" parent="38" vertex="1" connectable="0">
                    <mxGeometry x="0.0437" relative="1" as="geometry">
                        <mxPoint x="1" as="offset"/>
                    </mxGeometry>
                </mxCell>
                <mxCell id="40" value="consumidor idempotente" style="shape=callout;whiteSpace=wrap;html=1;perimeter=calloutPerimeter;fillColor=#BDBDBD;" parent="48" vertex="1">
                    <mxGeometry x="600" y="170" width="120" height="80" as="geometry"/>
                </mxCell>
                <mxCell id="41" value="consumidor idempotente" style="shape=callout;whiteSpace=wrap;html=1;perimeter=calloutPerimeter;fillColor=#BDBDBD;" parent="48" vertex="1">
                    <mxGeometry x="350" y="270" width="120" height="80" as="geometry"/>
                </mxCell>
                <mxCell id="42" value="Essa notificação pode ser:&lt;br&gt;1. Email&lt;br&gt;2. SMS&lt;br&gt;3. Push Notification&lt;br&gt;4. Console do terminal&lt;br&gt;5. Tem como eu devolvo isso para o postman?" style="shape=note;whiteSpace=wrap;html=1;backgroundOutline=1;darkOpacity=0.05;fillColor=#33FFFF;" parent="48" vertex="1">
                    <mxGeometry x="60" y="420" width="130" height="200" as="geometry"/>
                </mxCell>
                <mxCell id="45" value="&lt;font style=&quot;font-size: 36px&quot;&gt;Fluxo com transacao recusada&lt;/font&gt;" style="text;html=1;strokeColor=#6c8ebf;fillColor=#dae8fc;align=center;verticalAlign=middle;whiteSpace=wrap;rounded=0;shadow=1;glass=0;sketch=0;" parent="48" vertex="1">
                    <mxGeometry x="90" width="700" height="60" as="geometry"/>
                </mxCell>
                <mxCell id="46" value="&lt;font style=&quot;font-size: 12px&quot;&gt;error: &quot;valor nao pode ser igual ou menor que zero.&quot;&lt;/font&gt;" style="text;html=1;strokeColor=#b85450;fillColor=#f8cecc;align=center;verticalAlign=middle;whiteSpace=wrap;rounded=0;shadow=1;glass=0;sketch=0;fontSize=36;" parent="48" vertex="1">
                    <mxGeometry x="660" y="340" width="340" height="30" as="geometry"/>
                </mxCell>
                <mxCell id="49" value="" style="group" parent="1" vertex="1" connectable="0">
                    <mxGeometry x="2310" y="-39" width="880" height="630" as="geometry"/>
                </mxCell>
                <mxCell id="50" value="Financial" style="shape=umlLifeline;perimeter=lifelinePerimeter;whiteSpace=wrap;html=1;container=1;collapsible=0;recursiveResize=0;outlineConnect=0;lifelineDashed=0;fillColor=#42FFAD;rounded=1;glass=0;shadow=1;sketch=0;" parent="49" vertex="1">
                    <mxGeometry x="252" y="110" width="100" height="410" as="geometry"/>
                </mxCell>
                <mxCell id="51" value="" style="endArrow=classic;html=1;" parent="50" target="58" edge="1">
                    <mxGeometry width="50" height="50" relative="1" as="geometry">
                        <mxPoint x="50" y="120" as="sourcePoint"/>
                        <mxPoint x="168" y="30" as="targetPoint"/>
                    </mxGeometry>
                </mxCell>
                <mxCell id="52" value="Transacao Solicitada" style="edgeLabel;html=1;align=center;verticalAlign=middle;resizable=0;points=[];" parent="51" vertex="1" connectable="0">
                    <mxGeometry x="-0.1297" relative="1" as="geometry">
                        <mxPoint as="offset"/>
                    </mxGeometry>
                </mxCell>
                <mxCell id="74" value="" style="shape=mxgraph.sysml.x;rounded=0;shadow=1;glass=0;sketch=0;fontSize=12;fillColor=#f8cecc;strokeWidth=3;strokeColor=#b85450;" parent="50" vertex="1">
                    <mxGeometry x="41" y="250" width="20" height="20" as="geometry"/>
                </mxCell>
                <mxCell id="55" value="central bank" style="shape=umlLifeline;perimeter=lifelinePerimeter;whiteSpace=wrap;html=1;container=1;collapsible=0;recursiveResize=0;outlineConnect=0;lifelineDashed=0;fillColor=#42FFAD;rounded=1;shadow=1;" parent="49" vertex="1">
                    <mxGeometry x="780" y="110" width="100" height="410" as="geometry"/>
                </mxCell>
                <mxCell id="56" value="" style="endArrow=classic;html=1;" parent="55" edge="1">
                    <mxGeometry width="50" height="50" relative="1" as="geometry">
                        <mxPoint x="50" y="220" as="sourcePoint"/>
                        <mxPoint x="-250" y="220" as="targetPoint"/>
                    </mxGeometry>
                </mxCell>
                <mxCell id="57" value="transacao realizada" style="edgeLabel;html=1;align=center;verticalAlign=middle;resizable=0;points=[];" parent="56" vertex="1" connectable="0">
                    <mxGeometry x="-0.2567" y="1" relative="1" as="geometry">
                        <mxPoint x="-29" as="offset"/>
                    </mxGeometry>
                </mxCell>
                <mxCell id="76" value="" style="shape=mxgraph.sysml.x;rounded=0;shadow=1;glass=0;sketch=0;fontSize=12;fillColor=#f8cecc;strokeWidth=3;strokeColor=#b85450;" parent="55" vertex="1">
                    <mxGeometry x="40" y="150" width="20" height="20" as="geometry"/>
                </mxCell>
                <mxCell id="58" value="(Topic)&lt;br&gt;transacoes" style="shape=umlLifeline;perimeter=lifelinePerimeter;whiteSpace=wrap;html=1;container=1;collapsible=0;recursiveResize=0;outlineConnect=0;lifelineDashed=0;fillColor=#9575FF;rounded=0;shadow=1;gradientColor=none;" parent="49" vertex="1">
                    <mxGeometry x="480" y="110" width="100" height="410" as="geometry"/>
                </mxCell>
                <mxCell id="77" value="" style="shape=mxgraph.sysml.x;rounded=0;shadow=1;glass=0;sketch=0;fontSize=12;fillColor=#f8cecc;strokeWidth=3;strokeColor=#b85450;" parent="58" vertex="1">
                    <mxGeometry x="40" y="110" width="20" height="20" as="geometry"/>
                </mxCell>
                <mxCell id="75" value="" style="shape=mxgraph.sysml.x;rounded=0;shadow=1;glass=0;sketch=0;fontSize=12;fillColor=#f8cecc;strokeWidth=3;strokeColor=#b85450;" parent="58" vertex="1">
                    <mxGeometry x="40" y="210" width="20" height="20" as="geometry"/>
                </mxCell>
                <mxCell id="59" value="Usuario" style="shape=umlLifeline;perimeter=lifelinePerimeter;whiteSpace=wrap;html=1;container=1;collapsible=0;recursiveResize=0;outlineConnect=0;lifelineDashed=0;fillColor=#FFFF85;rounded=1;shadow=1;" parent="49" vertex="1">
                    <mxGeometry y="110" width="100" height="410" as="geometry"/>
                </mxCell>
                <mxCell id="71" value="" style="shape=mxgraph.sysml.x;rounded=0;shadow=1;glass=0;sketch=0;fontSize=12;fillColor=#f8cecc;strokeWidth=3;strokeColor=#b85450;" parent="59" vertex="1">
                    <mxGeometry x="40" y="300" width="20" height="20" as="geometry"/>
                </mxCell>
                <mxCell id="60" value="" style="endArrow=classic;html=1;" parent="49" edge="1">
                    <mxGeometry width="50" height="50" relative="1" as="geometry">
                        <mxPoint x="49.5" y="193" as="sourcePoint"/>
                        <mxPoint x="300" y="193" as="targetPoint"/>
                        <Array as="points">
                            <mxPoint x="240" y="193"/>
                        </Array>
                    </mxGeometry>
                </mxCell>
                <mxCell id="61" value="Solicita uma transação" style="edgeLabel;html=1;align=center;verticalAlign=middle;resizable=0;points=[];" parent="60" vertex="1" connectable="0">
                    <mxGeometry x="-0.1" y="-2" relative="1" as="geometry">
                        <mxPoint x="2" y="-2" as="offset"/>
                    </mxGeometry>
                </mxCell>
                <mxCell id="62" value="" style="endArrow=classic;html=1;" parent="49" edge="1">
                    <mxGeometry width="50" height="50" relative="1" as="geometry">
                        <mxPoint x="829.5" y="270" as="sourcePoint"/>
                        <mxPoint x="529.5" y="270" as="targetPoint"/>
                    </mxGeometry>
                </mxCell>
                <mxCell id="63" value="transacao solicitada recebida" style="edgeLabel;html=1;align=center;verticalAlign=middle;resizable=0;points=[];" parent="62" vertex="1" connectable="0">
                    <mxGeometry x="-0.2567" y="1" relative="1" as="geometry">
                        <mxPoint x="-28" as="offset"/>
                    </mxGeometry>
                </mxCell>
                <mxCell id="64" value="" style="endArrow=classic;html=1;" parent="49" source="50" target="59" edge="1">
                    <mxGeometry width="50" height="50" relative="1" as="geometry">
                        <mxPoint x="170" y="440" as="sourcePoint"/>
                        <mxPoint x="220" y="390" as="targetPoint"/>
                        <Array as="points">
                            <mxPoint x="210" y="420"/>
                        </Array>
                    </mxGeometry>
                </mxCell>
                <mxCell id="65" value="transacao realizada com sucesso" style="edgeLabel;html=1;align=center;verticalAlign=middle;resizable=0;points=[];" parent="64" vertex="1" connectable="0">
                    <mxGeometry x="0.0437" relative="1" as="geometry">
                        <mxPoint x="1" as="offset"/>
                    </mxGeometry>
                </mxCell>
                <mxCell id="66" value="consumidor idempotente" style="shape=callout;whiteSpace=wrap;html=1;perimeter=calloutPerimeter;fillColor=#BDBDBD;" parent="49" vertex="1">
                    <mxGeometry x="600" y="180" width="120" height="80" as="geometry"/>
                </mxCell>
                <mxCell id="67" value="consumidor idempotente" style="shape=callout;whiteSpace=wrap;html=1;perimeter=calloutPerimeter;fillColor=#BDBDBD;" parent="49" vertex="1">
                    <mxGeometry x="350" y="280" width="120" height="80" as="geometry"/>
                </mxCell>
                <mxCell id="69" value="&lt;font style=&quot;font-size: 36px&quot;&gt;Possíveis pontos de erros&lt;/font&gt;" style="text;html=1;strokeColor=#6c8ebf;fillColor=#dae8fc;align=center;verticalAlign=middle;whiteSpace=wrap;rounded=0;shadow=1;glass=0;sketch=0;" parent="49" vertex="1">
                    <mxGeometry x="110" width="700" height="60" as="geometry"/>
                </mxCell>
                <mxCell id="78" value="" style="shape=mxgraph.sysml.x;rounded=0;shadow=1;glass=0;sketch=0;fontSize=12;fillColor=#f8cecc;strokeWidth=3;strokeColor=#b85450;" parent="49" vertex="1">
                    <mxGeometry x="293" y="182" width="20" height="20" as="geometry"/>
                </mxCell>
                <mxCell id="53" value="" style="endArrow=classic;html=1;startArrow=none;" parent="49" source="74" target="58" edge="1">
                    <mxGeometry width="50" height="50" relative="1" as="geometry">
                        <mxPoint x="302" y="370" as="sourcePoint"/>
                        <mxPoint x="352" y="320" as="targetPoint"/>
                    </mxGeometry>
                </mxCell>
                <mxCell id="70" value="" style="endArrow=none;html=1;strokeWidth=8;" parent="1" edge="1">
                    <mxGeometry width="50" height="50" relative="1" as="geometry">
                        <mxPoint x="2090" y="800" as="sourcePoint"/>
                        <mxPoint x="2090" y="-280" as="targetPoint"/>
                    </mxGeometry>
                </mxCell>
                <mxCell id="81" value="Ocorrer erro no processamento" style="text;html=1;align=center;verticalAlign=middle;resizable=0;points=[];autosize=1;strokeColor=none;fillColor=none;fontSize=12;" parent="1" vertex="1">
                    <mxGeometry x="3150" y="200" width="180" height="20" as="geometry"/>
                </mxCell>
                <mxCell id="84" value="&lt;h1&gt;Transactional Outbox Pattern&lt;/h1&gt;&lt;p&gt;Se for para não trocar o RabbitMQ para o Kafka, vale a pena implementar o Polling Publisher pattern com os devidos controles de entre da mensagem.&lt;/p&gt;&lt;p&gt;&lt;br&gt;&lt;/p&gt;&lt;p&gt;&lt;br&gt;&lt;/p&gt;&lt;p&gt;Contudo para aumentar o nível de conhecimento e de ferramentas, irei trocar o Rabbitmq para o Kafka e implementar o Transactiona Log Tailing com o Debezium.&lt;/p&gt;" style="text;html=1;spacing=5;spacingTop=-20;whiteSpace=wrap;overflow=hidden;rounded=0;shadow=1;glass=0;sketch=0;fontSize=12;fillColor=#e3c800;fontColor=#000000;strokeColor=#B09500;gradientColor=none;" parent="1" vertex="1">
                    <mxGeometry x="-930" y="-80" width="360" height="290" as="geometry"/>
                </mxCell>
                <mxCell id="3" value="Financial" style="shape=umlLifeline;perimeter=lifelinePerimeter;whiteSpace=wrap;html=1;container=1;collapsible=0;recursiveResize=0;outlineConnect=0;lifelineDashed=0;fillColor=#42FFAD;rounded=1;glass=0;shadow=1;sketch=0;" parent="1" vertex="1">
                    <mxGeometry x="-150" y="65" width="100" height="410" as="geometry"/>
                </mxCell>
                <mxCell id="9" value="" style="endArrow=classic;html=1;" parent="3" target="87" edge="1">
                    <mxGeometry width="50" height="50" relative="1" as="geometry">
                        <mxPoint x="50" y="120" as="sourcePoint"/>
                        <mxPoint x="250" y="120" as="targetPoint"/>
                    </mxGeometry>
                </mxCell>
                <mxCell id="10" value="Transferencia Solicitada" style="edgeLabel;html=1;align=center;verticalAlign=middle;resizable=0;points=[];" parent="9" vertex="1" connectable="0">
                    <mxGeometry x="-0.1297" relative="1" as="geometry">
                        <mxPoint x="8" y="-4" as="offset"/>
                    </mxGeometry>
                </mxCell>
                <mxCell id="15" value="" style="endArrow=classic;html=1;" parent="3" edge="1">
                    <mxGeometry width="50" height="50" relative="1" as="geometry">
                        <mxPoint x="50" y="256" as="sourcePoint"/>
                        <mxPoint x="614.5" y="256" as="targetPoint"/>
                    </mxGeometry>
                </mxCell>
                <mxCell id="16" value="transferencia recebida, aguardando processamento" style="edgeLabel;html=1;align=center;verticalAlign=middle;resizable=0;points=[];" parent="15" vertex="1" connectable="0">
                    <mxGeometry x="-0.1736" relative="1" as="geometry">
                        <mxPoint x="14" y="-2" as="offset"/>
                    </mxGeometry>
                </mxCell>
                <mxCell id="4" value="central bank" style="shape=umlLifeline;perimeter=lifelinePerimeter;whiteSpace=wrap;html=1;container=1;collapsible=0;recursiveResize=0;outlineConnect=0;lifelineDashed=0;fillColor=#42FFAD;rounded=1;shadow=1;" parent="1" vertex="1">
                    <mxGeometry x="570" y="65" width="100" height="410" as="geometry"/>
                </mxCell>
                <mxCell id="13" value="" style="endArrow=classic;html=1;" parent="4" target="5" edge="1">
                    <mxGeometry width="50" height="50" relative="1" as="geometry">
                        <mxPoint x="50" y="308" as="sourcePoint"/>
                        <mxPoint x="-671.3333333333335" y="308" as="targetPoint"/>
                    </mxGeometry>
                </mxCell>
                <mxCell id="14" value="transacao realizada com sucesso" style="edgeLabel;html=1;align=center;verticalAlign=middle;resizable=0;points=[];" parent="13" vertex="1" connectable="0">
                    <mxGeometry x="-0.2567" y="1" relative="1" as="geometry">
                        <mxPoint x="-49" y="-3" as="offset"/>
                    </mxGeometry>
                </mxCell>
                <mxCell id="5" value="(Topic)&lt;br&gt;transferencia_sucesso" style="shape=umlLifeline;perimeter=lifelinePerimeter;whiteSpace=wrap;html=1;container=1;collapsible=0;recursiveResize=0;outlineConnect=0;lifelineDashed=0;fillColor=#7373FF;rounded=0;shadow=1;gradientColor=none;" parent="1" vertex="1">
                    <mxGeometry x="220" y="65" width="150" height="405" as="geometry"/>
                </mxCell>
                <mxCell id="6" value="Usuario / cliente" style="shape=umlLifeline;perimeter=lifelinePerimeter;whiteSpace=wrap;html=1;container=1;collapsible=0;recursiveResize=0;outlineConnect=0;lifelineDashed=0;fillColor=#858585;rounded=1;shadow=1;" parent="1" vertex="1">
                    <mxGeometry x="-360" y="70" width="100" height="410" as="geometry"/>
                </mxCell>
                <mxCell id="7" value="" style="endArrow=classic;html=1;" parent="1" source="6" edge="1" target="3">
                    <mxGeometry width="50" height="50" relative="1" as="geometry">
                        <mxPoint x="-220.5" y="153" as="sourcePoint"/>
                        <mxPoint x="-70" y="160" as="targetPoint"/>
                        <Array as="points">
                            <mxPoint x="-180" y="150"/>
                        </Array>
                    </mxGeometry>
                </mxCell>
                <mxCell id="8" value="Solicita uma transação" style="edgeLabel;html=1;align=center;verticalAlign=middle;resizable=0;points=[];" parent="7" vertex="1" connectable="0">
                    <mxGeometry x="-0.1" y="-2" relative="1" as="geometry">
                        <mxPoint x="6" y="-2" as="offset"/>
                    </mxGeometry>
                </mxCell>
                <mxCell id="21" value="Essa notificação pode ser:&lt;br&gt;1. Email&lt;br&gt;2. SMS&lt;br&gt;3. Push Notification&lt;br&gt;4. Console do terminal&lt;br&gt;5. Tem como eu devolvo isso para o postman?" style="shape=note;whiteSpace=wrap;html=1;backgroundOutline=1;darkOpacity=0.05;fillColor=#0050ef;fontColor=#ffffff;strokeColor=#001DBC;" parent="1" vertex="1">
                    <mxGeometry x="-450" y="440" width="130" height="200" as="geometry"/>
                </mxCell>
                <mxCell id="44" value="&lt;font style=&quot;font-size: 36px&quot;&gt;Fluxo feliz&lt;/font&gt;" style="text;html=1;strokeColor=#001DBC;fillColor=#0050ef;align=center;verticalAlign=middle;whiteSpace=wrap;rounded=0;shadow=1;glass=0;sketch=0;fontColor=#ffffff;" parent="1" vertex="1">
                    <mxGeometry x="-160" y="-40" width="700" height="60" as="geometry"/>
                </mxCell>
                <mxCell id="85" value="" style="endArrow=classic;html=1;" parent="1" target="6" edge="1">
                    <mxGeometry width="50" height="50" relative="1" as="geometry">
                        <mxPoint x="-100" y="216" as="sourcePoint"/>
                        <mxPoint x="-220" y="215.80999999999995" as="targetPoint"/>
                        <Array as="points"/>
                    </mxGeometry>
                </mxCell>
                <mxCell id="86" value="OK" style="edgeLabel;html=1;align=center;verticalAlign=middle;resizable=0;points=[];" parent="85" vertex="1" connectable="0">
                    <mxGeometry x="0.051" y="1" relative="1" as="geometry">
                        <mxPoint x="-9" y="-3" as="offset"/>
                    </mxGeometry>
                </mxCell>
                <mxCell id="87" value="(Topic)&lt;br&gt;transferencia solicitada" style="shape=umlLifeline;perimeter=lifelinePerimeter;whiteSpace=wrap;html=1;container=1;collapsible=0;recursiveResize=0;outlineConnect=0;lifelineDashed=0;fillColor=#7373FF;rounded=0;shadow=1;gradientColor=none;" parent="1" vertex="1">
                    <mxGeometry x="40" y="65" width="120" height="429" as="geometry"/>
                </mxCell>
                <mxCell id="88" value="(Topic)&lt;br&gt;transferencia_recebida" style="shape=umlLifeline;perimeter=lifelinePerimeter;whiteSpace=wrap;html=1;container=1;collapsible=0;recursiveResize=0;outlineConnect=0;lifelineDashed=0;fillColor=#7373FF;rounded=0;shadow=1;gradientColor=none;" vertex="1" parent="1">
                    <mxGeometry x="400" y="65" width="130" height="405" as="geometry"/>
                </mxCell>
                <mxCell id="20" value="consumidor idempotente" style="shape=callout;whiteSpace=wrap;html=1;perimeter=calloutPerimeter;fillColor=#BDBDBD;" parent="88" vertex="1">
                    <mxGeometry x="-50" y="191.5" width="90" height="64.5" as="geometry"/>
                </mxCell>
                <mxCell id="89" value="" style="endArrow=classic;html=1;" edge="1" parent="1">
                    <mxGeometry width="50" height="50" relative="1" as="geometry">
                        <mxPoint x="619.5" y="228" as="sourcePoint"/>
                        <mxPoint x="464.5" y="228" as="targetPoint"/>
                        <Array as="points">
                            <mxPoint x="590" y="228"/>
                            <mxPoint x="550" y="228"/>
                        </Array>
                    </mxGeometry>
                </mxCell>
                <mxCell id="90" value="transferencia recebida" style="edgeLabel;html=1;align=center;verticalAlign=middle;resizable=0;points=[];" vertex="1" connectable="0" parent="89">
                    <mxGeometry x="0.129" y="-1" relative="1" as="geometry">
                        <mxPoint x="18" y="1" as="offset"/>
                    </mxGeometry>
                </mxCell>
                <mxCell id="91" value="" style="endArrow=classic;html=1;" edge="1" parent="1" source="4" target="87">
                    <mxGeometry width="50" height="50" relative="1" as="geometry">
                        <mxPoint x="530" y="300" as="sourcePoint"/>
                        <mxPoint x="580" y="250" as="targetPoint"/>
                        <Array as="points">
                            <mxPoint x="420" y="200"/>
                        </Array>
                    </mxGeometry>
                </mxCell>
                <mxCell id="92" value="" style="endArrow=classic;html=1;" edge="1" parent="1" target="5">
                    <mxGeometry width="50" height="50" relative="1" as="geometry">
                        <mxPoint x="-100.5" y="421" as="sourcePoint"/>
                        <mxPoint x="290" y="421" as="targetPoint"/>
                    </mxGeometry>
                </mxCell>
                <mxCell id="93" value="Transferencia finalizada" style="edgeLabel;html=1;align=center;verticalAlign=middle;resizable=0;points=[];" vertex="1" connectable="0" parent="92">
                    <mxGeometry x="-0.4051" y="-2" relative="1" as="geometry">
                        <mxPoint x="1" as="offset"/>
                    </mxGeometry>
                </mxCell>
                <mxCell id="19" value="consumidor idempotente" style="shape=callout;whiteSpace=wrap;html=1;perimeter=calloutPerimeter;fillColor=#BDBDBD;" parent="1" vertex="1">
                    <mxGeometry x="120" y="133" width="90" height="68" as="geometry"/>
                </mxCell>
                <mxCell id="96" value="" style="endArrow=classic;html=1;" edge="1" parent="1" source="3" target="6">
                    <mxGeometry width="50" height="50" relative="1" as="geometry">
                        <mxPoint x="-180" y="410" as="sourcePoint"/>
                        <mxPoint x="-130" y="360" as="targetPoint"/>
                        <Array as="points">
                            <mxPoint x="-180" y="440"/>
                        </Array>
                    </mxGeometry>
                </mxCell>
                <mxCell id="97" value="Exibir retorno para o usuario" style="edgeLabel;html=1;align=center;verticalAlign=middle;resizable=0;points=[];" vertex="1" connectable="0" parent="96">
                    <mxGeometry x="0.119" y="2" relative="1" as="geometry">
                        <mxPoint x="13" y="-2" as="offset"/>
                    </mxGeometry>
                </mxCell>
            </root>
        </mxGraphModel>
    </diagram>
</mxfile>